<?xml version="1.0" encoding="utf-8"?>
<!-- Generator: Adobe Illustrator 22.0.0, SVG Export Plug-In . SVG Version: 6.00 Build 0)  -->
<svg version="1.1" id="隔离模式" xmlns="http://www.w3.org/2000/svg" xmlns:xlink="http://www.w3.org/1999/xlink" x="0px"
	 y="0px" viewBox="0 0 204.3 183.9" style="enable-background:new 0 0 204.3 183.9;" xml:space="preserve">
<style type="text/css">
	.st0{fill:#FFFFFF;}
</style>
<g>
	<path class="st0" d="M27.5,54.3L103.1,81c0.5,0.2,0.9,0.3,1.5,0.3c0.6,0,1.1-0.1,1.6-0.3l70.8-29.2c1.6-0.7,2.7-2.3,2.7-4.1
		c0-1.8-1.2-3.4-2.9-4L101.2,17c-1-0.3-2.1-0.3-3.1,0.1L27.3,46.2c-1.6,0.7-2.7,2.3-2.7,4.1C24.7,52.1,25.8,53.7,27.5,54.3
		L27.5,54.3z M99.9,25.6L163.2,48l-58.8,24.2L41.1,49.9L99.9,25.6z M99.9,25.6"/>
	<path class="st0" d="M176.7,86.6l-42.4-15c-2.3-0.8-4.7,0.4-5.5,2.6c-0.8,2.3,0.4,4.7,2.6,5.5L163.2,91l-58.8,24.2L41.1,92.9
		l32.3-13.3c2.2-0.9,3.2-3.4,2.3-5.6c-0.9-2.2-3.4-3.3-5.6-2.3L27.3,89.2c-1.6,0.7-2.7,2.3-2.7,4.1c0,1.8,1.2,3.4,2.9,4L103,124
		c0.5,0.2,0.9,0.3,1.5,0.3c0.6,0,1.1-0.1,1.6-0.3l70.8-29.2c1.6-0.7,2.7-2.3,2.7-4.1C179.6,88.8,178.4,87.2,176.7,86.6L176.7,86.6z
		 M176.7,86.6"/>
	<path class="st0" d="M176.7,129.6l-41.6-14.7c-2.3-0.8-4.7,0.4-5.5,2.6c-0.8,2.2,0.4,4.7,2.6,5.5l30.9,10.9l-58.8,24.2l-63.3-22.4
		l30.6-12.6c2.2-0.9,3.2-3.4,2.3-5.6c-0.9-2.2-3.5-3.3-5.6-2.3l-41.1,16.9c-1.6,0.7-2.7,2.3-2.7,4.1c0,1.8,1.2,3.4,2.9,4l75.5,26.7
		c0.5,0.2,0.9,0.3,1.5,0.3c0.6,0,1.1-0.1,1.6-0.3l70.8-29.2c1.6-0.7,2.7-2.3,2.7-4.1C179.6,131.8,178.4,130.2,176.7,129.6
		L176.7,129.6z M176.7,129.6"/>
</g>
</svg>
